<?xml version="1.0" standalone="no"?>
<!DOCTYPE svg PUBLIC "-//W3C//DTD SVG 20010904//EN"
 "http://www.w3.org/TR/2001/REC-SVG-20010904/DTD/svg10.dtd">
<svg version="1.0" xmlns="http://www.w3.org/2000/svg"
 width="512.000000pt" height="512.000000pt" viewBox="0 0 512.000000 512.000000"
 preserveAspectRatio="xMidYMid meet">

<g transform="translate(0.000000,512.000000) scale(0.100000,-0.100000)"
fill="#000000" stroke="none">
<path d="M2196 4939 c-145 -42 -325 -131 -444 -220 l-54 -41 34 -29 c18 -16
80 -61 138 -100 103 -69 105 -70 114 -47 61 153 142 288 244 407 24 28 42 51
40 50 -1 0 -34 -9 -72 -20z"/>
<path d="M2884 4917 c109 -126 194 -263 241 -390 l18 -47 46 26 c54 32 152
100 200 141 l34 29 -76 56 c-123 90 -284 168 -429 208 l-70 19 36 -42z"/>
<path d="M2483 4892 c-107 -38 -203 -144 -288 -317 -81 -165 -81 -157 10 -184
229 -68 492 -68 718 1 81 24 80 20 17 156 -129 275 -296 401 -457 344z"/>
<path d="M1535 4517 c-105 -119 -200 -285 -260 -458 -33 -94 -75 -294 -75
-355 l0 -24 318 0 318 0 12 148 c12 151 40 334 67 432 18 64 28 51 -110 139
-50 31 -120 83 -157 114 l-67 57 -46 -53z"/>
<path d="M3465 4503 c-84 -68 -244 -173 -263 -173 -9 0 -12 -6 -8 -16 27 -70
70 -352 82 -531 l7 -103 318 0 c297 0 319 1 319 18 0 9 -7 60 -15 112 -28 189
-96 376 -193 529 -55 89 -157 221 -170 221 -4 0 -38 -26 -77 -57z"/>
<path d="M2071 4222 c-30 -115 -56 -288 -67 -444 l-7 -98 563 0 563 0 -7 98
c-11 156 -37 329 -67 443 l-9 37 -78 -24 c-143 -45 -236 -58 -407 -57 -168 0
-291 18 -417 62 l-58 20 -9 -37z"/>
<path d="M1200 3503 c0 -47 32 -218 55 -298 53 -182 167 -393 283 -525 l40
-45 28 23 c100 79 196 148 254 182 l68 39 -19 78 c-25 107 -57 326 -65 456
l-7 107 -318 0 c-297 0 -319 -1 -319 -17z"/>
<path d="M2004 3423 c11 -157 37 -330 67 -444 l9 -37 76 24 c249 79 558 77
823 -5 l61 -19 9 37 c29 113 55 286 67 449 l7 92 -563 0 -563 0 7 -97z"/>
<path d="M3276 3413 c-10 -159 -52 -420 -81 -514 -4 -11 18 -30 82 -68 49 -28
126 -83 173 -121 47 -38 88 -69 92 -70 11 0 132 160 181 240 89 148 155 332
182 510 8 52 15 103 15 113 0 16 -22 17 -319 17 l-318 0 -7 -107z"/>
<path d="M2354 2845 c-40 -7 -106 -23 -149 -36 -92 -27 -91 -19 -10 -185 67
-135 148 -235 228 -283 l57 -34 0 -273 0 -274 -375 0 -376 0 -24 -25 c-23 -22
-25 -32 -25 -120 l0 -95 -444 0 -445 0 -24 53 c-30 66 -81 118 -150 154 -44
23 -65 27 -137 28 -101 0 -159 -23 -228 -93 -65 -65 -87 -120 -87 -222 0 -102
22 -157 87 -222 67 -67 127 -92 223 -93 66 0 90 5 136 26 70 33 125 87 156
156 l24 53 445 0 444 0 0 -95 c0 -88 2 -98 25 -120 l24 -25 376 0 375 0 0
-160 0 -160 -695 0 -696 0 -24 -25 c-23 -22 -25 -32 -25 -120 l0 -95 -124 0
-125 0 -24 53 c-30 66 -81 118 -150 154 -44 23 -65 27 -137 28 -101 0 -159
-23 -228 -93 -65 -65 -87 -120 -87 -222 0 -102 22 -157 87 -222 67 -67 127
-92 223 -93 66 0 90 5 136 26 70 33 125 87 156 156 l24 53 125 0 124 0 0 -95
c0 -88 2 -98 25 -120 l24 -25 1471 0 1471 0 24 25 c23 22 25 32 25 120 l0 95
124 0 125 0 24 -53 c30 -66 81 -118 150 -154 44 -23 65 -27 137 -27 101 -1
159 23 228 92 65 65 87 120 87 222 0 102 -22 157 -87 222 -69 69 -127 93 -228
92 -72 0 -93 -4 -137 -27 -69 -36 -120 -88 -150 -154 l-24 -53 -125 0 -124 0
0 95 c0 88 -2 98 -25 120 l-24 25 -696 0 -695 0 0 160 0 160 375 0 376 0 24
25 c23 22 25 32 25 120 l0 95 444 0 445 0 24 -53 c30 -66 81 -118 150 -154 44
-23 65 -27 137 -27 101 -1 159 23 228 92 65 65 87 120 87 222 0 102 -22 157
-87 222 -69 69 -127 93 -228 92 -72 0 -93 -4 -137 -27 -69 -36 -120 -88 -150
-154 l-24 -53 -445 0 -444 0 0 95 c0 88 -2 98 -25 120 l-24 25 -376 0 -375 0
0 275 c0 254 1 276 18 282 40 14 125 88 173 151 49 65 142 240 154 293 6 25 4
27 -62 47 -166 51 -408 66 -569 37z"/>
<path d="M1870 2651 c-58 -39 -120 -84 -138 -100 l-34 -29 54 -41 c73 -55 207
-131 298 -168 87 -36 220 -75 220 -64 0 4 -20 27 -45 51 -83 82 -175 233 -241
398 -9 23 -11 22 -114 -47z"/>
<path d="M3125 2672 c-50 -133 -148 -292 -230 -372 -25 -24 -45 -47 -45 -51 0
-11 133 28 226 66 92 38 213 107 293 167 l54 41 -34 28 c-39 33 -193 141 -225
157 -20 10 -23 7 -39 -36z"/>
</g>
</svg>
